<svg xmlns="http://www.w3.org/2000/svg" xml:space="preserve" width="32" height="32" viewBox="0 0 579.4 579.4">
  <path d="M144.8 144.8v108.7c0 20 16.2 36.2 36.2 36.2h217.3c20 0 36.2-16.2 36.2-36.2V144.8a144.8 144.8 0 0 0-289.7 0zm253.5 0a108.6 108.6 0 0 1-217.3 0s108.7 1.2 217.3 0zM507 398.3c0-40-32.5-72.4-72.5-72.4h-33.1c-5 0-12.6 2.3-16.8 5.2l-37 25.2a30 30 0 0 0-10.1 14l-43.2 146.2c-1.4 4.9-3.8 4.9-5.3 0l-45.4-143.7c-1.5-4.8-6.2-11-10.4-13.8l-41.5-28A35.3 35.3 0 0 0 175 326h-30c-40 0-72.5 32.4-72.5 72.4v144.8c0 20 16.2 36.3 36.2 36.3H470.7c20 0 36.2-16.2 36.2-36.3V398.3zM234.4 547.7a15.3 15.3 0 1 1 0-30.6 15.3 15.3 0 0 1 0 30.6zm0-55a15.3 15.3 0 1 1 0-30.6 15.3 15.3 0 0 1 0 30.6z" fill="white"/>
</svg>
